<svg width="35" height="36" viewBox="0 0 35 36" fill="none" xmlns="http://www.w3.org/2000/svg">
<circle cx="17.5" cy="17.5" r="17.5" fill="#59714B"/>
<path d="M17.48 7.832C19.224 7.832 20.624 8.28 21.68 9.176C22.736 10.072 23.264 11.352 23.264 13.016C23.264 14.472 22.776 15.624 21.8 16.472C20.84 17.32 19.568 17.76 17.984 17.792L17.864 19.544H13.712L13.568 14.768H15.296C16.384 14.768 17.216 14.648 17.792 14.408C18.368 14.152 18.656 13.704 18.656 13.064C18.656 12.632 18.536 12.296 18.296 12.056C18.072 11.8 17.76 11.672 17.36 11.672C16.912 11.672 16.568 11.808 16.328 12.08C16.104 12.336 15.992 12.688 15.992 13.136H11.552C11.52 12.16 11.72 11.272 12.152 10.472C12.6 9.656 13.272 9.016 14.168 8.552C15.064 8.072 16.168 7.832 17.48 7.832ZM15.824 26.192C14.992 26.192 14.32 25.968 13.808 25.52C13.312 25.056 13.064 24.472 13.064 23.768C13.064 23.064 13.312 22.48 13.808 22.016C14.32 21.552 14.992 21.32 15.824 21.32C16.64 21.32 17.296 21.552 17.792 22.016C18.304 22.48 18.56 23.064 18.56 23.768C18.56 24.456 18.304 25.032 17.792 25.496C17.296 25.96 16.64 26.192 15.824 26.192Z" fill="#D2DCC4"/>
</svg>
